<svg width="29" height="29" viewBox="0 0 29 29" fill="none" xmlns="http://www.w3.org/2000/svg">
<g filter="url(#filter0_d_16_15)">
<path d="M24.8332 12.0833C22.7291 7.19791 18.7707 4.16666 14.4999 4.16666C10.2291 4.16666 6.27072 7.19791 4.16655 12.0833C4.1092 12.2147 4.07959 12.3566 4.07959 12.5C4.07959 12.6434 4.1092 12.7852 4.16655 12.9167C6.27072 17.8021 10.2291 20.8333 14.4999 20.8333C18.7707 20.8333 22.7291 17.8021 24.8332 12.9167C24.8906 12.7852 24.9202 12.6434 24.9202 12.5C24.9202 12.3566 24.8906 12.2147 24.8332 12.0833ZM14.4999 18.75C11.1978 18.75 8.0728 16.3646 6.27072 12.5C8.0728 8.63541 11.1978 6.24999 14.4999 6.24999C17.802 6.24999 20.927 8.63541 22.7291 12.5C20.927 16.3646 17.802 18.75 14.4999 18.75ZM14.4999 8.33332C13.6758 8.33332 12.8702 8.57769 12.185 9.03553C11.4998 9.49337 10.9658 10.1441 10.6504 10.9055C10.335 11.6668 10.2525 12.5046 10.4133 13.3129C10.5741 14.1211 10.9709 14.8635 11.5536 15.4463C12.1363 16.029 12.8788 16.4258 13.687 16.5866C14.4953 16.7474 15.333 16.6649 16.0944 16.3495C16.8558 16.0341 17.5065 15.5001 17.9643 14.8149C18.4222 14.1297 18.6666 13.3241 18.6666 12.5C18.6666 11.3949 18.2276 10.3351 17.4462 9.55371C16.6648 8.77231 15.605 8.33332 14.4999 8.33332ZM14.4999 14.5833C14.0878 14.5833 13.6851 14.4611 13.3424 14.2322C12.9998 14.0033 12.7328 13.6779 12.5751 13.2972C12.4175 12.9166 12.3762 12.4977 12.4566 12.0936C12.537 11.6894 12.7354 11.3182 13.0267 11.0269C13.3181 10.7355 13.6893 10.5371 14.0934 10.4567C14.4976 10.3763 14.9165 10.4176 15.2971 10.5752C15.6778 10.7329 16.0032 10.9999 16.2321 11.3426C16.461 11.6852 16.5832 12.0879 16.5832 12.5C16.5832 13.0525 16.3637 13.5824 15.973 13.9731C15.5823 14.3638 15.0524 14.5833 14.4999 14.5833Z" fill="#050522"/>
</g>
<defs>
<filter id="filter0_d_16_15" x="-2" y="0" width="33" height="33" filterUnits="userSpaceOnUse" color-interpolation-filters="sRGB">
<feFlood flood-opacity="0" result="BackgroundImageFix"/>
<feColorMatrix in="SourceAlpha" type="matrix" values="0 0 0 0 0 0 0 0 0 0 0 0 0 0 0 0 0 0 127 0" result="hardAlpha"/>
<feOffset dy="4"/>
<feGaussianBlur stdDeviation="2"/>
<feComposite in2="hardAlpha" operator="out"/>
<feColorMatrix type="matrix" values="0 0 0 0 0 0 0 0 0 0 0 0 0 0 0 0 0 0 0.25 0"/>
<feBlend mode="normal" in2="BackgroundImageFix" result="effect1_dropShadow_16_15"/>
<feBlend mode="normal" in="SourceGraphic" in2="effect1_dropShadow_16_15" result="shape"/>
</filter>
</defs>
</svg>
